<svg width="22" height="22" viewBox="0 0 22 22" fill="none" xmlns="http://www.w3.org/2000/svg">
<g filter="url(#filter0_di_20_10022)">
<path d="M16.6638 6.3584H18.1069C18.7575 6.3584 19.2377 6.97386 18.9755 7.56928C18.7045 8.18499 18.295 8.87779 17.6726 9.50015C16.1149 11.0579 15.211 11.6246 14.4847 11.8062" stroke="url(#paint0_linear_20_10022)"/>
</g>
<g filter="url(#filter1_i_20_10022)">
<path d="M16.4787 6.3584H17.9219C18.5724 6.3584 19.0526 6.97386 18.7905 7.56928C18.5194 8.18499 18.1099 8.87779 17.4875 9.50015C15.9298 11.0579 15.026 11.6246 14.2996 11.8062" stroke="url(#paint1_linear_20_10022)"/>
</g>
<g filter="url(#filter2_di_20_10022)">
<path d="M4.72391 6.3584H3.28078C2.6302 6.3584 2.15003 6.97386 2.41216 7.56928C2.68322 8.18499 3.09272 8.87779 3.71509 9.50015C5.27282 11.0579 6.17666 11.6246 6.90303 11.8062" stroke="url(#paint2_linear_20_10022)"/>
</g>
<g filter="url(#filter3_i_20_10022)">
<path d="M4.90896 6.3584H3.46583C2.81526 6.3584 2.33509 6.97386 2.59722 7.56928C2.86828 8.18499 3.27778 8.87779 3.90015 9.50015C5.45788 11.0579 6.36171 11.6246 7.08809 11.8062" stroke="url(#paint3_linear_20_10022)"/>
</g>
<g filter="url(#filter4_i_20_10022)">
<ellipse cx="10.4537" cy="15.0751" rx="3.26869" ry="0.544781" fill="#9BB4C1"/>
</g>
<g filter="url(#filter5_i_20_10022)">
<rect x="9.61475" y="12.8955" width="2.17913" height="2.17913" fill="#8095A1"/>
</g>
<path d="M4.16699 3.08984H17.2417L16.9474 8.19207C16.8187 10.4226 15.4626 12.4209 13.4496 13.3901C12.6424 13.7787 11.7478 13.9855 10.852 13.9855C9.76834 13.9855 8.70515 13.6902 7.77666 13.1314L7.63074 13.0436C5.77698 11.9279 4.5905 9.97184 4.45761 7.81232L4.16699 3.08984Z" fill="url(#paint4_linear_20_10022)"/>
<mask id="mask0_20_10022" style="mask-type:alpha" maskUnits="userSpaceOnUse" x="3" y="3" width="15" height="11">
<path d="M3.98779 3H17.0625L16.7682 8.10222C16.6395 10.3327 15.2834 12.331 13.2704 13.3002C12.4632 13.6889 11.5686 13.8956 10.6728 13.8956C9.58914 13.8956 8.52595 13.6004 7.59746 13.0416L7.45154 12.9537C5.59778 11.838 4.4113 9.882 4.27841 7.72247L3.98779 3Z" fill="url(#paint5_linear_20_10022)"/>
</mask>
<g mask="url(#mask0_20_10022)">
<g filter="url(#filter6_f_20_10022)">
<rect x="4.16699" y="3.08984" width="13.0747" height="1.63434" fill="#4C6877"/>
</g>
<g filter="url(#filter7_di_20_10022)">
<circle cx="10.4878" cy="8.5" r="3.5" fill="url(#paint6_linear_20_10022)"/>
</g>
<g filter="url(#filter8_i_20_10022)">
<circle cx="10.4587" cy="8.35417" r="3.35417" fill="url(#paint7_linear_20_10022)"/>
</g>
<g filter="url(#filter9_i_20_10022)">
<circle cx="10.4876" cy="8.50033" r="2.33333" fill="url(#paint8_linear_20_10022)"/>
</g>
<g filter="url(#filter10_i_20_10022)">
<path d="M12.0206 7.82166L11.2064 7.74212C11.175 7.73904 11.1449 7.72745 11.1188 7.70844C11.0927 7.68944 11.0716 7.66363 11.0575 7.63347L10.6235 6.70914C10.6077 6.6755 10.5833 6.64736 10.5532 6.62798C10.523 6.6086 10.4884 6.59878 10.4532 6.59966C10.4181 6.60055 10.3838 6.61211 10.3546 6.63298C10.3253 6.65386 10.3022 6.68321 10.2879 6.7176L9.91027 7.62586C9.89687 7.65811 9.87568 7.68596 9.84889 7.70654C9.82209 7.72712 9.79066 7.7397 9.75782 7.74297L8.95649 7.82166C8.91883 7.82542 8.88313 7.84141 8.85419 7.86748C8.82524 7.89355 8.80443 7.92846 8.79454 7.96754C8.78465 8.00661 8.78615 8.04799 8.79885 8.08613C8.81154 8.12426 8.83481 8.15734 8.86556 8.18093L9.48454 8.65478C9.51758 8.68011 9.54195 8.71634 9.55389 8.75792C9.56583 8.7995 9.56469 8.84412 9.55065 8.88493L9.26124 9.72618C9.24831 9.76382 9.24632 9.80477 9.25554 9.84364C9.26477 9.88252 9.28477 9.91749 9.31292 9.94397C9.34107 9.97045 9.37605 9.98719 9.41326 9.992C9.45047 9.9968 9.48816 9.98944 9.52139 9.97088L10.3754 9.49281C10.4015 9.47817 10.4306 9.47041 10.4601 9.47017C10.4896 9.46994 10.5187 9.47723 10.5451 9.49146L11.4476 9.97833C11.4811 9.99638 11.5188 10.0032 11.556 9.99783C11.5931 9.99248 11.6279 9.97524 11.6557 9.94836C11.6835 9.92148 11.703 9.88623 11.7118 9.84724C11.7205 9.80825 11.718 9.76735 11.7046 9.7299L11.4041 8.88866C11.3893 8.84712 11.3878 8.80145 11.4001 8.75895C11.4124 8.71645 11.4376 8.67959 11.4718 8.65427L12.1096 8.18161C12.1405 8.15822 12.164 8.12528 12.1769 8.0872C12.1899 8.04911 12.1916 8.00771 12.1819 7.96855C12.1722 7.92938 12.1516 7.89432 12.1227 7.86806C12.0939 7.84181 12.0582 7.82562 12.0206 7.82166Z" fill="url(#paint9_linear_20_10022)"/>
</g>
</g>
<g filter="url(#filter11_i_20_10022)">
<path d="M17.2192 2H4.18996C3.89495 2 3.61203 2.11481 3.40343 2.31918C3.19483 2.52354 3.07764 2.80072 3.07764 3.08973C3.07773 3.37869 3.19496 3.65578 3.40355 3.86007C3.61214 4.06436 3.89501 4.17913 4.18996 4.17913H17.2192C17.5142 4.17913 17.7971 4.06431 18.0057 3.85995C18.2143 3.65559 18.3315 3.37841 18.3315 3.08939C18.3314 2.80044 18.2142 2.52335 18.0056 2.31906C17.797 2.11476 17.5141 2 17.2192 2Z" fill="url(#paint10_linear_20_10022)"/>
</g>
<path d="M4.78155 18.7834L6.80287 15.7514C6.85449 15.674 6.95211 15.6423 7.04033 15.6719C7.65505 15.8784 9.14975 16.2729 10.5599 16.2729C11.972 16.2729 13.3054 16.3337 13.8445 16.2048C13.9242 16.1857 14.0112 16.2019 14.0691 16.2598L16.4559 18.6467C16.564 18.7547 16.5169 18.9392 16.3702 18.982C15.0125 19.3776 12.6914 20.0864 10.5599 20.0864C8.37691 20.0864 5.39455 19.5046 4.79373 18.9814C4.73584 18.931 4.73897 18.8472 4.78155 18.7834Z" fill="url(#paint11_linear_20_10022)"/>
<path d="M5.32162 18.0227L7.09771 15.2129C7.14841 15.1327 7.24827 15.0994 7.33835 15.1292C7.91546 15.3202 9.15791 15.62 10.5595 15.62C11.9503 15.62 13.0864 15.3248 13.6058 15.1336C13.6932 15.1014 13.7925 15.1284 13.8476 15.2035L15.9814 18.1115C16.064 18.224 16.0093 18.3845 15.8754 18.424C14.5894 18.804 12.7137 19.4334 10.5595 19.4334C8.37597 19.4334 5.87764 18.7544 5.33267 18.2201C5.27911 18.1676 5.28155 18.0861 5.32162 18.0227Z" fill="url(#paint12_linear_20_10022)"/>
<defs>
<filter id="filter0_di_20_10022" x="14.2633" y="5.8584" width="5.38994" height="6.63262" filterUnits="userSpaceOnUse" color-interpolation-filters="sRGB">
<feFlood flood-opacity="0" result="BackgroundImageFix"/>
<feColorMatrix in="SourceAlpha" type="matrix" values="0 0 0 0 0 0 0 0 0 0 0 0 0 0 0 0 0 0 127 0" result="hardAlpha"/>
<feOffset dy="0.1"/>
<feGaussianBlur stdDeviation="0.05"/>
<feComposite in2="hardAlpha" operator="out"/>
<feColorMatrix type="matrix" values="0 0 0 0 0.294118 0 0 0 0 0.337255 0 0 0 0 0.431373 0 0 0 1 0"/>
<feBlend mode="normal" in2="BackgroundImageFix" result="effect1_dropShadow_20_10022"/>
<feBlend mode="normal" in="SourceGraphic" in2="effect1_dropShadow_20_10022" result="shape"/>
<feColorMatrix in="SourceAlpha" type="matrix" values="0 0 0 0 0 0 0 0 0 0 0 0 0 0 0 0 0 0 127 0" result="hardAlpha"/>
<feOffset/>
<feGaussianBlur stdDeviation="0.2"/>
<feComposite in2="hardAlpha" operator="arithmetic" k2="-1" k3="1"/>
<feColorMatrix type="matrix" values="0 0 0 0 1 0 0 0 0 1 0 0 0 0 1 0 0 0 1 0"/>
<feBlend mode="normal" in2="shape" result="effect2_innerShadow_20_10022"/>
</filter>
<filter id="filter1_i_20_10022" x="14.1782" y="5.8584" width="5.18994" height="6.43262" filterUnits="userSpaceOnUse" color-interpolation-filters="sRGB">
<feFlood flood-opacity="0" result="BackgroundImageFix"/>
<feBlend mode="normal" in="SourceGraphic" in2="BackgroundImageFix" result="shape"/>
<feColorMatrix in="SourceAlpha" type="matrix" values="0 0 0 0 0 0 0 0 0 0 0 0 0 0 0 0 0 0 127 0" result="hardAlpha"/>
<feOffset/>
<feGaussianBlur stdDeviation="0.2"/>
<feComposite in2="hardAlpha" operator="arithmetic" k2="-1" k3="1"/>
<feColorMatrix type="matrix" values="0 0 0 0 1 0 0 0 0 1 0 0 0 0 1 0 0 0 1 0"/>
<feBlend mode="normal" in2="shape" result="effect1_innerShadow_20_10022"/>
</filter>
<filter id="filter2_di_20_10022" x="1.73447" y="5.8584" width="5.38994" height="6.63262" filterUnits="userSpaceOnUse" color-interpolation-filters="sRGB">
<feFlood flood-opacity="0" result="BackgroundImageFix"/>
<feColorMatrix in="SourceAlpha" type="matrix" values="0 0 0 0 0 0 0 0 0 0 0 0 0 0 0 0 0 0 127 0" result="hardAlpha"/>
<feOffset dy="0.1"/>
<feGaussianBlur stdDeviation="0.05"/>
<feComposite in2="hardAlpha" operator="out"/>
<feColorMatrix type="matrix" values="0 0 0 0 0.294118 0 0 0 0 0.337255 0 0 0 0 0.431373 0 0 0 1 0"/>
<feBlend mode="normal" in2="BackgroundImageFix" result="effect1_dropShadow_20_10022"/>
<feBlend mode="normal" in="SourceGraphic" in2="effect1_dropShadow_20_10022" result="shape"/>
<feColorMatrix in="SourceAlpha" type="matrix" values="0 0 0 0 0 0 0 0 0 0 0 0 0 0 0 0 0 0 127 0" result="hardAlpha"/>
<feOffset/>
<feGaussianBlur stdDeviation="0.2"/>
<feComposite in2="hardAlpha" operator="arithmetic" k2="-1" k3="1"/>
<feColorMatrix type="matrix" values="0 0 0 0 1 0 0 0 0 1 0 0 0 0 1 0 0 0 1 0"/>
<feBlend mode="normal" in2="shape" result="effect2_innerShadow_20_10022"/>
</filter>
<filter id="filter3_i_20_10022" x="2.01953" y="5.8584" width="5.18994" height="6.43262" filterUnits="userSpaceOnUse" color-interpolation-filters="sRGB">
<feFlood flood-opacity="0" result="BackgroundImageFix"/>
<feBlend mode="normal" in="SourceGraphic" in2="BackgroundImageFix" result="shape"/>
<feColorMatrix in="SourceAlpha" type="matrix" values="0 0 0 0 0 0 0 0 0 0 0 0 0 0 0 0 0 0 127 0" result="hardAlpha"/>
<feOffset/>
<feGaussianBlur stdDeviation="0.2"/>
<feComposite in2="hardAlpha" operator="arithmetic" k2="-1" k3="1"/>
<feColorMatrix type="matrix" values="0 0 0 0 1 0 0 0 0 1 0 0 0 0 1 0 0 0 1 0"/>
<feBlend mode="normal" in2="shape" result="effect1_innerShadow_20_10022"/>
</filter>
<filter id="filter4_i_20_10022" x="7.18506" y="14.5303" width="6.5376" height="1.48984" filterUnits="userSpaceOnUse" color-interpolation-filters="sRGB">
<feFlood flood-opacity="0" result="BackgroundImageFix"/>
<feBlend mode="normal" in="SourceGraphic" in2="BackgroundImageFix" result="shape"/>
<feColorMatrix in="SourceAlpha" type="matrix" values="0 0 0 0 0 0 0 0 0 0 0 0 0 0 0 0 0 0 127 0" result="hardAlpha"/>
<feOffset dy="0.4"/>
<feGaussianBlur stdDeviation="0.2"/>
<feComposite in2="hardAlpha" operator="arithmetic" k2="-1" k3="1"/>
<feColorMatrix type="matrix" values="0 0 0 0 0.373051 0 0 0 0 0.539919 0 0 0 0 0.62669 0 0 0 1 0"/>
<feBlend mode="normal" in2="shape" result="effect1_innerShadow_20_10022"/>
</filter>
<filter id="filter5_i_20_10022" x="9.61475" y="12.8955" width="2.1792" height="2.17871" filterUnits="userSpaceOnUse" color-interpolation-filters="sRGB">
<feFlood flood-opacity="0" result="BackgroundImageFix"/>
<feBlend mode="normal" in="SourceGraphic" in2="BackgroundImageFix" result="shape"/>
<feColorMatrix in="SourceAlpha" type="matrix" values="0 0 0 0 0 0 0 0 0 0 0 0 0 0 0 0 0 0 127 0" result="hardAlpha"/>
<feOffset/>
<feGaussianBlur stdDeviation="0.25"/>
<feComposite in2="hardAlpha" operator="arithmetic" k2="-1" k3="1"/>
<feColorMatrix type="matrix" values="0 0 0 0 1 0 0 0 0 1 0 0 0 0 1 0 0 0 1 0"/>
<feBlend mode="normal" in2="shape" result="effect1_innerShadow_20_10022"/>
</filter>
<filter id="filter6_f_20_10022" x="2.16699" y="1.08984" width="17.0747" height="5.63477" filterUnits="userSpaceOnUse" color-interpolation-filters="sRGB">
<feFlood flood-opacity="0" result="BackgroundImageFix"/>
<feBlend mode="normal" in="SourceGraphic" in2="BackgroundImageFix" result="shape"/>
<feGaussianBlur stdDeviation="1" result="effect1_foregroundBlur_20_10022"/>
</filter>
<filter id="filter7_di_20_10022" x="6.78779" y="5" width="7.4" height="7.5" filterUnits="userSpaceOnUse" color-interpolation-filters="sRGB">
<feFlood flood-opacity="0" result="BackgroundImageFix"/>
<feColorMatrix in="SourceAlpha" type="matrix" values="0 0 0 0 0 0 0 0 0 0 0 0 0 0 0 0 0 0 127 0" result="hardAlpha"/>
<feOffset dy="0.3"/>
<feGaussianBlur stdDeviation="0.1"/>
<feComposite in2="hardAlpha" operator="out"/>
<feColorMatrix type="matrix" values="0 0 0 0 0.0431373 0 0 0 0 0.0862745 0 0 0 0 0.160784 0 0 0 0.36 0"/>
<feBlend mode="normal" in2="BackgroundImageFix" result="effect1_dropShadow_20_10022"/>
<feBlend mode="normal" in="SourceGraphic" in2="effect1_dropShadow_20_10022" result="shape"/>
<feColorMatrix in="SourceAlpha" type="matrix" values="0 0 0 0 0 0 0 0 0 0 0 0 0 0 0 0 0 0 127 0" result="hardAlpha"/>
<feOffset/>
<feGaussianBlur stdDeviation="0.5"/>
<feComposite in2="hardAlpha" operator="arithmetic" k2="-1" k3="1"/>
<feColorMatrix type="matrix" values="0 0 0 0 1 0 0 0 0 1 0 0 0 0 1 0 0 0 1 0"/>
<feBlend mode="normal" in2="shape" result="effect2_innerShadow_20_10022"/>
</filter>
<filter id="filter8_i_20_10022" x="7.10449" y="5" width="6.7085" height="6.70801" filterUnits="userSpaceOnUse" color-interpolation-filters="sRGB">
<feFlood flood-opacity="0" result="BackgroundImageFix"/>
<feBlend mode="normal" in="SourceGraphic" in2="BackgroundImageFix" result="shape"/>
<feColorMatrix in="SourceAlpha" type="matrix" values="0 0 0 0 0 0 0 0 0 0 0 0 0 0 0 0 0 0 127 0" result="hardAlpha"/>
<feOffset/>
<feGaussianBlur stdDeviation="0.5"/>
<feComposite in2="hardAlpha" operator="arithmetic" k2="-1" k3="1"/>
<feColorMatrix type="matrix" values="0 0 0 0 1 0 0 0 0 1 0 0 0 0 1 0 0 0 1 0"/>
<feBlend mode="normal" in2="shape" result="effect1_innerShadow_20_10022"/>
</filter>
<filter id="filter9_i_20_10022" x="8.1543" y="6.16699" width="4.6665" height="5.06699" filterUnits="userSpaceOnUse" color-interpolation-filters="sRGB">
<feFlood flood-opacity="0" result="BackgroundImageFix"/>
<feBlend mode="normal" in="SourceGraphic" in2="BackgroundImageFix" result="shape"/>
<feColorMatrix in="SourceAlpha" type="matrix" values="0 0 0 0 0 0 0 0 0 0 0 0 0 0 0 0 0 0 127 0" result="hardAlpha"/>
<feOffset dy="0.4"/>
<feGaussianBlur stdDeviation="0.2"/>
<feComposite in2="hardAlpha" operator="arithmetic" k2="-1" k3="1"/>
<feColorMatrix type="matrix" values="0 0 0 0 0.392157 0 0 0 0 0.552941 0 0 0 0 0.635294 0 0 0 1 0"/>
<feBlend mode="normal" in2="shape" result="effect1_innerShadow_20_10022"/>
</filter>
<filter id="filter10_i_20_10022" x="8.78809" y="6.59961" width="3.3999" height="3.40039" filterUnits="userSpaceOnUse" color-interpolation-filters="sRGB">
<feFlood flood-opacity="0" result="BackgroundImageFix"/>
<feBlend mode="normal" in="SourceGraphic" in2="BackgroundImageFix" result="shape"/>
<feColorMatrix in="SourceAlpha" type="matrix" values="0 0 0 0 0 0 0 0 0 0 0 0 0 0 0 0 0 0 127 0" result="hardAlpha"/>
<feOffset/>
<feGaussianBlur stdDeviation="0.5"/>
<feComposite in2="hardAlpha" operator="arithmetic" k2="-1" k3="1"/>
<feColorMatrix type="matrix" values="0 0 0 0 1 0 0 0 0 1 0 0 0 0 1 0 0 0 1 0"/>
<feBlend mode="normal" in2="shape" result="effect1_innerShadow_20_10022"/>
</filter>
<filter id="filter11_i_20_10022" x="3.07764" y="2" width="15.2539" height="2.17871" filterUnits="userSpaceOnUse" color-interpolation-filters="sRGB">
<feFlood flood-opacity="0" result="BackgroundImageFix"/>
<feBlend mode="normal" in="SourceGraphic" in2="BackgroundImageFix" result="shape"/>
<feColorMatrix in="SourceAlpha" type="matrix" values="0 0 0 0 0 0 0 0 0 0 0 0 0 0 0 0 0 0 127 0" result="hardAlpha"/>
<feOffset/>
<feGaussianBlur stdDeviation="0.5"/>
<feComposite in2="hardAlpha" operator="arithmetic" k2="-1" k3="1"/>
<feColorMatrix type="matrix" values="0 0 0 0 0.995524 0 0 0 0 0.99688 0 0 0 0 1 0 0 0 1 0"/>
<feBlend mode="normal" in2="shape" result="effect1_innerShadow_20_10022"/>
</filter>
<linearGradient id="paint0_linear_20_10022" x1="19.4878" y1="8.00015" x2="16.4878" y2="11.0002" gradientUnits="userSpaceOnUse">
<stop stop-color="#799DB0"/>
<stop offset="0.265707" stop-color="#D6ECF8"/>
<stop offset="0.91" stop-color="#98B0BE"/>
</linearGradient>
<linearGradient id="paint1_linear_20_10022" x1="19.9875" y1="6.50015" x2="16.9875" y2="10.5002" gradientUnits="userSpaceOnUse">
<stop stop-color="#C7DEEA"/>
<stop offset="0.58" stop-color="#AAC2CF"/>
<stop offset="0.91" stop-color="#9DB6C3"/>
</linearGradient>
<linearGradient id="paint2_linear_20_10022" x1="1.8999" y1="8.00015" x2="4.8999" y2="11.0002" gradientUnits="userSpaceOnUse">
<stop stop-color="#BEC7D7"/>
<stop offset="0.265707" stop-color="#D1DCEE"/>
<stop offset="0.91" stop-color="#BEC7D7"/>
</linearGradient>
<linearGradient id="paint3_linear_20_10022" x1="1.40015" y1="6.50015" x2="4.40015" y2="10.5002" gradientUnits="userSpaceOnUse">
<stop stop-color="#C7DEEA"/>
<stop offset="0.58" stop-color="#AAC2CF"/>
<stop offset="0.91" stop-color="#9DB6C3"/>
</linearGradient>
<linearGradient id="paint4_linear_20_10022" x1="11" y1="3.00024" x2="10.7044" y2="13.9855" gradientUnits="userSpaceOnUse">
<stop offset="0.283654" stop-color="#C1D9E6"/>
<stop offset="1" stop-color="#64889B"/>
</linearGradient>
<linearGradient id="paint5_linear_20_10022" x1="10.5252" y1="3" x2="10.5252" y2="13.8956" gradientUnits="userSpaceOnUse">
<stop stop-color="#809CAB"/>
<stop offset="1" stop-color="#809CAB"/>
</linearGradient>
<linearGradient id="paint6_linear_20_10022" x1="8.73779" y1="12" x2="12.5295" y2="12" gradientUnits="userSpaceOnUse">
<stop stop-color="#A0C0D1"/>
<stop offset="0.51" stop-color="#D2E9F5"/>
<stop offset="1" stop-color="#A0C0D1"/>
</linearGradient>
<linearGradient id="paint7_linear_20_10022" x1="10.4587" y1="5" x2="10.4587" y2="11.7083" gradientUnits="userSpaceOnUse">
<stop stop-color="white"/>
<stop offset="0.576087" stop-color="#D3E9F5"/>
<stop offset="1" stop-color="#9DB6C3"/>
</linearGradient>
<linearGradient id="paint8_linear_20_10022" x1="10.4876" y1="6.16699" x2="10.4876" y2="10.8337" gradientUnits="userSpaceOnUse">
<stop stop-color="#98B0BE"/>
<stop offset="1" stop-color="#A0B8C6"/>
</linearGradient>
<linearGradient id="paint9_linear_20_10022" x1="10.4881" y1="6.59961" x2="10.4881" y2="9.99961" gradientUnits="userSpaceOnUse">
<stop stop-color="white"/>
<stop offset="0.576087" stop-color="#D3E9F5"/>
<stop offset="1" stop-color="#9DB6C3"/>
</linearGradient>
<linearGradient id="paint10_linear_20_10022" x1="11.6032" y1="2" x2="11.6032" y2="4.17913" gradientUnits="userSpaceOnUse">
<stop stop-color="#9FB6C3"/>
<stop offset="1" stop-color="#7B909C"/>
</linearGradient>
<linearGradient id="paint11_linear_20_10022" x1="5.31117" y1="17.8527" x2="15.4986" y2="17.8527" gradientUnits="userSpaceOnUse">
<stop stop-color="#799DB0"/>
<stop offset="0.175" stop-color="#A9CDE1"/>
<stop offset="0.34" stop-color="#799DB0"/>
<stop offset="0.665" stop-color="#799DB0"/>
<stop offset="0.825" stop-color="#A9CDE1"/>
<stop offset="0.99" stop-color="#799DB0"/>
</linearGradient>
<linearGradient id="paint12_linear_20_10022" x1="5.80113" y1="17.2543" x2="15.0624" y2="17.2543" gradientUnits="userSpaceOnUse">
<stop stop-color="#94ACB9"/>
<stop offset="0.175" stop-color="#D6ECF8"/>
<stop offset="0.34" stop-color="#9DB6C3"/>
<stop offset="0.665" stop-color="#9DB6C3"/>
<stop offset="0.825" stop-color="#D6ECF8"/>
<stop offset="0.99" stop-color="#98B0BE"/>
</linearGradient>
</defs>
</svg>
