<svg width="22" height="24" viewBox="0 0 22 24" fill="none" xmlns="http://www.w3.org/2000/svg">
<g filter="url(#filter0_d_20_9934)">
<path d="M18.1789 6.85598L11.7878 3.19377C11.5472 3.05904 11.2759 2.98828 11 2.98828C10.7241 2.98828 10.4528 3.05904 10.2122 3.19377L3.79889 6.85598C3.55721 6.99382 3.35615 7.19266 3.21592 7.4325C3.07569 7.67235 3.00123 7.94477 3 8.2224V15.5358C3.00137 15.8141 3.07585 16.0872 3.21602 16.3279C3.35618 16.5687 3.55715 16.7685 3.79889 16.9077L10.2122 20.5589C10.4555 20.6976 10.7308 20.7706 11.0111 20.7706C11.2913 20.7706 11.5667 20.6976 11.81 20.5589L18.2011 16.9077C18.4429 16.7685 18.6438 16.5687 18.784 16.3279C18.9241 16.0872 18.9986 15.8141 19 15.5358V8.2224C18.9966 7.94258 18.9187 7.66868 18.7745 7.42864C18.6302 7.18859 18.4247 6.99099 18.1789 6.85598Z" fill="url(#paint0_linear_20_9934)"/>
</g>
<g filter="url(#filter1_i_20_9934)">
<path d="M18.1789 6.85598L11.7878 3.19377C11.5472 3.05904 11.2759 2.98828 11 2.98828C10.7241 2.98828 10.4528 3.05904 10.2122 3.19377L3.79889 6.85598C3.55721 6.99382 3.35615 7.19266 3.21592 7.4325C3.07569 7.67235 3.00123 7.94477 3 8.2224V15.5358C3.00137 15.8141 3.07585 16.0872 3.21602 16.3279C3.35618 16.5687 3.55715 16.7685 3.79889 16.9077L10.2122 20.5589C10.4555 20.6976 10.7308 20.7706 11.0111 20.7706C11.2913 20.7706 11.5667 20.6976 11.81 20.5589L18.2011 16.9077C18.4429 16.7685 18.6438 16.5687 18.784 16.3279C18.9241 16.0872 18.9986 15.8141 19 15.5358V8.2224C18.9966 7.94258 18.9187 7.66868 18.7745 7.42864C18.6302 7.18859 18.4247 6.99099 18.1789 6.85598Z" fill="url(#paint1_linear_20_9934)"/>
</g>
<path d="M18.1789 5.8677L11.7878 2.20548C11.5472 2.07076 11.2759 2 11 2C10.7241 2 10.4528 2.07076 10.2122 2.20548L3.79889 5.8677C3.55721 6.00554 3.35615 6.20437 3.21592 6.44422C3.07569 6.68407 3.00123 6.95649 3 7.23412V14.5475C3.00137 14.8258 3.07585 15.099 3.21602 15.3397C3.35618 15.5804 3.55715 15.7803 3.79889 15.9194L10.2122 19.5706C10.4555 19.7094 10.7308 19.7823 11.0111 19.7823C11.2913 19.7823 11.5667 19.7094 11.81 19.5706L18.2011 15.9194C18.4429 15.7803 18.6438 15.5804 18.784 15.3397C18.9241 15.099 18.9986 14.8258 19 14.5475V7.23412C18.9966 6.9543 18.9187 6.6804 18.7745 6.44036C18.6302 6.20031 18.4247 6.00271 18.1789 5.8677Z" fill="url(#paint2_linear_20_9934)"/>
<g filter="url(#filter2_di_20_9934)">
<circle cx="11" cy="11.0303" r="6" fill="url(#paint3_linear_20_9934)"/>
</g>
<g filter="url(#filter3_di_20_9934)">
<circle cx="10.9502" cy="10.7803" r="5.75" fill="url(#paint4_linear_20_9934)"/>
</g>
<g filter="url(#filter4_i_20_9934)">
<circle cx="11" cy="11.0303" r="4" fill="url(#paint5_linear_20_9934)"/>
</g>
<g filter="url(#filter5_di_20_9934)">
<path d="M9.14986 12.4846L8.01969 9.12911C8.00731 9.09284 8 9.0509 8 9.00693C8 8.85171 8.09038 8.7194 8.21733 8.66793L8.21958 8.66712L10.0273 7.95651C10.0616 7.94232 10.1011 7.93422 10.1426 7.93422C10.2851 7.93422 10.4068 8.03128 10.454 8.16744L10.4548 8.16987L10.5199 8.3644L9.1898 12.317C9.17349 12.3645 9.15961 12.4208 9.15061 12.4789L9.14986 12.4846ZM13.9803 9.2211L12.5002 13.6195C12.453 13.7581 12.3318 13.8552 12.1897 13.8552C12.1486 13.8552 12.1093 13.8471 12.0729 13.8323L12.0751 13.8331L10.0175 13.0226C9.8883 12.9703 9.79792 12.838 9.79792 12.6828C9.79792 12.639 9.80504 12.5971 9.81836 12.5582L9.81761 12.5606L11.2977 8.16501C11.3453 8.0254 11.4674 7.92773 11.6105 7.92773C11.6508 7.92773 11.6894 7.93543 11.725 7.94962L11.7228 7.94881L13.7804 8.75932C13.9096 8.81159 14 8.94391 14 9.09912C14 9.14289 13.9929 9.18483 13.9796 9.22374L13.9803 9.2211ZM12.7303 10.9609L12.6004 10.6312C12.5743 10.5655 12.515 10.5206 12.446 10.5206C12.4234 10.5206 12.4016 10.5254 12.3817 10.5343L12.3828 10.5339L12.1329 10.6529C12.1141 10.6614 12.0926 10.6662 12.0697 10.6662C12.0007 10.6662 11.9414 10.6213 11.9157 10.5568L11.9154 10.5556L11.8079 10.2855C11.7822 10.2209 11.7239 10.1763 11.6558 10.1763C11.6322 10.1763 11.6097 10.1818 11.5893 10.1913L11.5904 10.1909L11.2829 10.3313C11.2227 10.358 11.181 10.4209 11.181 10.4942C11.181 10.5203 11.1863 10.5451 11.1959 10.5674L11.1955 10.5663L11.563 11.5039C11.5902 11.5683 11.6495 11.6123 11.7181 11.6123C11.7415 11.6123 11.7639 11.6072 11.7841 11.5979L11.783 11.5983L12.648 11.1985C12.7031 11.1696 12.7404 11.1096 12.7404 11.0401C12.7404 11.0111 12.7339 10.984 12.7224 10.9598L12.7228 10.9609H12.7303Z" fill="url(#paint6_linear_20_9934)"/>
</g>
<defs>
<filter id="filter0_d_20_9934" x="1" y="1.98828" width="20" height="21.7822" filterUnits="userSpaceOnUse" color-interpolation-filters="sRGB">
<feFlood flood-opacity="0" result="BackgroundImageFix"/>
<feColorMatrix in="SourceAlpha" type="matrix" values="0 0 0 0 0 0 0 0 0 0 0 0 0 0 0 0 0 0 127 0" result="hardAlpha"/>
<feOffset dy="1"/>
<feGaussianBlur stdDeviation="1"/>
<feComposite in2="hardAlpha" operator="out"/>
<feColorMatrix type="matrix" values="0 0 0 0 0.921569 0 0 0 0 0.682353 0 0 0 0 0.427451 0 0 0 0.29 0"/>
<feBlend mode="normal" in2="BackgroundImageFix" result="effect1_dropShadow_20_9934"/>
<feBlend mode="normal" in="SourceGraphic" in2="effect1_dropShadow_20_9934" result="shape"/>
</filter>
<filter id="filter1_i_20_9934" x="3" y="2.98828" width="16" height="17.7822" filterUnits="userSpaceOnUse" color-interpolation-filters="sRGB">
<feFlood flood-opacity="0" result="BackgroundImageFix"/>
<feBlend mode="normal" in="SourceGraphic" in2="BackgroundImageFix" result="shape"/>
<feColorMatrix in="SourceAlpha" type="matrix" values="0 0 0 0 0 0 0 0 0 0 0 0 0 0 0 0 0 0 127 0" result="hardAlpha"/>
<feOffset/>
<feGaussianBlur stdDeviation="0.25"/>
<feComposite in2="hardAlpha" operator="arithmetic" k2="-1" k3="1"/>
<feColorMatrix type="matrix" values="0 0 0 0 1 0 0 0 0 1 0 0 0 0 1 0 0 0 1 0"/>
<feBlend mode="normal" in2="shape" result="effect1_innerShadow_20_9934"/>
</filter>
<filter id="filter2_di_20_9934" x="4.8" y="5.03027" width="12.4" height="12.5" filterUnits="userSpaceOnUse" color-interpolation-filters="sRGB">
<feFlood flood-opacity="0" result="BackgroundImageFix"/>
<feColorMatrix in="SourceAlpha" type="matrix" values="0 0 0 0 0 0 0 0 0 0 0 0 0 0 0 0 0 0 127 0" result="hardAlpha"/>
<feOffset dy="0.3"/>
<feGaussianBlur stdDeviation="0.1"/>
<feComposite in2="hardAlpha" operator="out"/>
<feColorMatrix type="matrix" values="0 0 0 0 0.890174 0 0 0 0 0.564557 0 0 0 0 0.206378 0 0 0 0.76 0"/>
<feBlend mode="normal" in2="BackgroundImageFix" result="effect1_dropShadow_20_9934"/>
<feBlend mode="normal" in="SourceGraphic" in2="effect1_dropShadow_20_9934" result="shape"/>
<feColorMatrix in="SourceAlpha" type="matrix" values="0 0 0 0 0 0 0 0 0 0 0 0 0 0 0 0 0 0 127 0" result="hardAlpha"/>
<feOffset/>
<feGaussianBlur stdDeviation="0.5"/>
<feComposite in2="hardAlpha" operator="arithmetic" k2="-1" k3="1"/>
<feColorMatrix type="matrix" values="0 0 0 0 1 0 0 0 0 1 0 0 0 0 1 0 0 0 1 0"/>
<feBlend mode="normal" in2="shape" result="effect2_innerShadow_20_9934"/>
</filter>
<filter id="filter3_di_20_9934" x="4.8002" y="4.83027" width="12.3" height="12.3" filterUnits="userSpaceOnUse" color-interpolation-filters="sRGB">
<feFlood flood-opacity="0" result="BackgroundImageFix"/>
<feColorMatrix in="SourceAlpha" type="matrix" values="0 0 0 0 0 0 0 0 0 0 0 0 0 0 0 0 0 0 127 0" result="hardAlpha"/>
<feOffset dy="0.2"/>
<feGaussianBlur stdDeviation="0.2"/>
<feComposite in2="hardAlpha" operator="out"/>
<feColorMatrix type="matrix" values="0 0 0 0 0.657058 0 0 0 0 0.38029 0 0 0 0 0.0848222 0 0 0 1 0"/>
<feBlend mode="normal" in2="BackgroundImageFix" result="effect1_dropShadow_20_9934"/>
<feBlend mode="normal" in="SourceGraphic" in2="effect1_dropShadow_20_9934" result="shape"/>
<feColorMatrix in="SourceAlpha" type="matrix" values="0 0 0 0 0 0 0 0 0 0 0 0 0 0 0 0 0 0 127 0" result="hardAlpha"/>
<feOffset/>
<feGaussianBlur stdDeviation="0.5"/>
<feComposite in2="hardAlpha" operator="arithmetic" k2="-1" k3="1"/>
<feColorMatrix type="matrix" values="0 0 0 0 1 0 0 0 0 1 0 0 0 0 1 0 0 0 1 0"/>
<feBlend mode="normal" in2="shape" result="effect2_innerShadow_20_9934"/>
</filter>
<filter id="filter4_i_20_9934" x="7" y="7.03027" width="8" height="8.4" filterUnits="userSpaceOnUse" color-interpolation-filters="sRGB">
<feFlood flood-opacity="0" result="BackgroundImageFix"/>
<feBlend mode="normal" in="SourceGraphic" in2="BackgroundImageFix" result="shape"/>
<feColorMatrix in="SourceAlpha" type="matrix" values="0 0 0 0 0 0 0 0 0 0 0 0 0 0 0 0 0 0 127 0" result="hardAlpha"/>
<feOffset dy="0.4"/>
<feGaussianBlur stdDeviation="0.2"/>
<feComposite in2="hardAlpha" operator="arithmetic" k2="-1" k3="1"/>
<feColorMatrix type="matrix" values="0 0 0 0 0.723051 0 0 0 0 0.490657 0 0 0 0 0.230923 0 0 0 1 0"/>
<feBlend mode="normal" in2="shape" result="effect1_innerShadow_20_9934"/>
</filter>
<filter id="filter5_di_20_9934" x="7.6" y="7.72773" width="6.8" height="6.72773" filterUnits="userSpaceOnUse" color-interpolation-filters="sRGB">
<feFlood flood-opacity="0" result="BackgroundImageFix"/>
<feColorMatrix in="SourceAlpha" type="matrix" values="0 0 0 0 0 0 0 0 0 0 0 0 0 0 0 0 0 0 127 0" result="hardAlpha"/>
<feOffset dy="0.2"/>
<feGaussianBlur stdDeviation="0.2"/>
<feComposite in2="hardAlpha" operator="out"/>
<feColorMatrix type="matrix" values="0 0 0 0 0.657058 0 0 0 0 0.38029 0 0 0 0 0.0848222 0 0 0 1 0"/>
<feBlend mode="normal" in2="BackgroundImageFix" result="effect1_dropShadow_20_9934"/>
<feBlend mode="normal" in="SourceGraphic" in2="effect1_dropShadow_20_9934" result="shape"/>
<feColorMatrix in="SourceAlpha" type="matrix" values="0 0 0 0 0 0 0 0 0 0 0 0 0 0 0 0 0 0 127 0" result="hardAlpha"/>
<feOffset/>
<feGaussianBlur stdDeviation="0.5"/>
<feComposite in2="hardAlpha" operator="arithmetic" k2="-1" k3="1"/>
<feColorMatrix type="matrix" values="0 0 0 0 1 0 0 0 0 1 0 0 0 0 1 0 0 0 1 0"/>
<feBlend mode="normal" in2="shape" result="effect2_innerShadow_20_9934"/>
</filter>
<linearGradient id="paint0_linear_20_9934" x1="3" y1="20.7706" x2="18.9759" y2="20.1505" gradientUnits="userSpaceOnUse">
<stop offset="0.25" stop-color="#D28531"/>
<stop offset="0.515" stop-color="#FFBB70"/>
<stop offset="0.754808" stop-color="#D28531"/>
</linearGradient>
<linearGradient id="paint1_linear_20_9934" x1="3" y1="20.7706" x2="18.9759" y2="20.1505" gradientUnits="userSpaceOnUse">
<stop offset="0.25" stop-color="#D28531"/>
<stop offset="0.515" stop-color="#FFBB70"/>
<stop offset="0.754808" stop-color="#D28531"/>
</linearGradient>
<linearGradient id="paint2_linear_20_9934" x1="11" y1="20" x2="10" y2="5" gradientUnits="userSpaceOnUse">
<stop offset="0.173077" stop-color="#D49B55"/>
<stop offset="1" stop-color="#F8C894"/>
</linearGradient>
<linearGradient id="paint3_linear_20_9934" x1="8" y1="17.0303" x2="14.5" y2="17.0303" gradientUnits="userSpaceOnUse">
<stop stop-color="#D69249"/>
<stop offset="0.51" stop-color="#FAD1A4"/>
<stop offset="1" stop-color="#D69349"/>
</linearGradient>
<linearGradient id="paint4_linear_20_9934" x1="10.9502" y1="6.4404" x2="10.9502" y2="16.5029" gradientUnits="userSpaceOnUse">
<stop stop-color="white"/>
<stop offset="0.547619" stop-color="#E9AC69"/>
<stop offset="0.94" stop-color="white"/>
</linearGradient>
<linearGradient id="paint5_linear_20_9934" x1="11" y1="7.03027" x2="11" y2="15.0303" gradientUnits="userSpaceOnUse">
<stop stop-color="#FED5A9"/>
<stop offset="1" stop-color="#D48B3A"/>
</linearGradient>
<linearGradient id="paint6_linear_20_9934" x1="11" y1="8.65456" x2="11" y2="13.8411" gradientUnits="userSpaceOnUse">
<stop stop-color="white"/>
<stop offset="0.547619" stop-color="#E9AC69"/>
<stop offset="0.94" stop-color="white"/>
</linearGradient>
</defs>
</svg>
