<svg width="22" height="22" viewBox="0 0 22 22" fill="none" xmlns="http://www.w3.org/2000/svg">
<g filter="url(#filter0_i_3058_25292)">
<rect y="4" width="22" height="16" rx="4" fill="url(#paint0_linear_3058_25292)"/>
</g>
<rect y="3" width="22" height="16" rx="4" fill="url(#paint1_linear_3058_25292)"/>
<g filter="url(#filter1_di_3058_25292)">
<circle cx="11" cy="11" r="6" fill="url(#paint2_linear_3058_25292)"/>
</g>
<g filter="url(#filter2_i_3058_25292)">
<circle cx="10.9502" cy="10.75" r="5.75" fill="url(#paint3_linear_3058_25292)"/>
</g>
<g filter="url(#filter3_i_3058_25292)">
<circle cx="11" cy="11" r="4" fill="url(#paint4_linear_3058_25292)"/>
</g>
<g clip-path="url(#clip0_3058_25292)">
<g filter="url(#filter4_i_3058_25292)">
<path d="M13.5259 10.5671C13.2651 9.41926 12.2385 8.5625 11.0118 8.5625C10.4341 8.5617 9.87311 8.75575 9.4194 9.11328C9.40135 9.12749 9.37871 9.13458 9.35577 9.13319C9.33284 9.13181 9.31122 9.12206 9.295 9.10578L8.80282 8.61436C8.71387 8.52594 8.56258 8.58875 8.56258 8.71391V10.4375C8.56258 10.537 8.60209 10.6323 8.67242 10.7027C8.74274 10.773 8.83813 10.8125 8.93758 10.8125H10.6661C10.7915 10.8125 10.8542 10.6609 10.7657 10.5723L10.2145 10.0223C10.2056 10.0135 10.1986 10.0029 10.1938 9.99129C10.1891 9.97968 10.1868 9.96724 10.1869 9.9547C10.1871 9.94216 10.1898 9.92978 10.1948 9.9183C10.1998 9.90681 10.2071 9.89645 10.2162 9.88783C10.5458 9.57802 10.9813 9.40577 11.4337 9.40625C12.2372 9.40625 12.9161 9.93834 13.1383 10.6694C13.1507 10.7107 13.1761 10.7469 13.2107 10.7727C13.2453 10.7985 13.2872 10.8124 13.3304 10.8125C13.3605 10.8125 13.3903 10.8057 13.4174 10.7926C13.4446 10.7795 13.4684 10.7605 13.4872 10.7369C13.506 10.7133 13.5192 10.6858 13.5259 10.6564C13.5326 10.627 13.5326 10.5965 13.5259 10.5671ZM8.47428 11.4329C8.73502 12.5807 9.76164 13.4375 10.9884 13.4375C11.566 13.4383 12.1271 13.2443 12.5808 12.8867C12.5988 12.8725 12.6215 12.8654 12.6444 12.8668C12.6673 12.8682 12.6889 12.8779 12.7052 12.8942L13.1978 13.3856C13.2864 13.4741 13.438 13.4113 13.438 13.286V11.5625C13.438 11.463 13.3985 11.3677 13.3282 11.2973C13.2578 11.227 13.1624 11.1875 13.063 11.1875H11.3341C11.2087 11.1875 11.146 11.3391 11.2348 11.4277L11.786 11.9777C11.7949 11.9866 11.8019 11.9971 11.8066 12.0087C11.8114 12.0203 11.8137 12.0328 11.8135 12.0453C11.8134 12.0578 11.8107 12.0702 11.8057 12.0817C11.8006 12.0932 11.7933 12.1036 11.7842 12.1122C11.4545 12.4221 11.019 12.5943 10.5665 12.5938C9.76293 12.5938 9.08407 12.0617 8.86188 11.3306C8.84946 11.2893 8.82407 11.2531 8.78949 11.2273C8.7549 11.2015 8.71294 11.1876 8.66981 11.1875C8.63967 11.1875 8.60991 11.1943 8.58276 11.2074C8.55561 11.2205 8.53175 11.2396 8.51297 11.2631C8.49419 11.2867 8.48095 11.3142 8.47425 11.3436C8.46756 11.373 8.46757 11.4035 8.47428 11.4329Z" fill="url(#paint5_linear_3058_25292)"/>
</g>
</g>
<defs>
<filter id="filter0_i_3058_25292" x="0" y="4" width="22" height="16" filterUnits="userSpaceOnUse" color-interpolation-filters="sRGB">
<feFlood flood-opacity="0" result="BackgroundImageFix"/>
<feBlend mode="normal" in="SourceGraphic" in2="BackgroundImageFix" result="shape"/>
<feColorMatrix in="SourceAlpha" type="matrix" values="0 0 0 0 0 0 0 0 0 0 0 0 0 0 0 0 0 0 127 0" result="hardAlpha"/>
<feOffset/>
<feGaussianBlur stdDeviation="0.5"/>
<feComposite in2="hardAlpha" operator="arithmetic" k2="-1" k3="1"/>
<feColorMatrix type="matrix" values="0 0 0 0 1 0 0 0 0 1 0 0 0 0 1 0 0 0 1 0"/>
<feBlend mode="normal" in2="shape" result="effect1_innerShadow_3058_25292"/>
</filter>
<filter id="filter1_di_3058_25292" x="4.8" y="5" width="12.4" height="12.5" filterUnits="userSpaceOnUse" color-interpolation-filters="sRGB">
<feFlood flood-opacity="0" result="BackgroundImageFix"/>
<feColorMatrix in="SourceAlpha" type="matrix" values="0 0 0 0 0 0 0 0 0 0 0 0 0 0 0 0 0 0 127 0" result="hardAlpha"/>
<feOffset dy="0.3"/>
<feGaussianBlur stdDeviation="0.1"/>
<feComposite in2="hardAlpha" operator="out"/>
<feColorMatrix type="matrix" values="0 0 0 0 0.0431373 0 0 0 0 0.0862745 0 0 0 0 0.160784 0 0 0 0.36 0"/>
<feBlend mode="normal" in2="BackgroundImageFix" result="effect1_dropShadow_3058_25292"/>
<feBlend mode="normal" in="SourceGraphic" in2="effect1_dropShadow_3058_25292" result="shape"/>
<feColorMatrix in="SourceAlpha" type="matrix" values="0 0 0 0 0 0 0 0 0 0 0 0 0 0 0 0 0 0 127 0" result="hardAlpha"/>
<feOffset/>
<feGaussianBlur stdDeviation="0.5"/>
<feComposite in2="hardAlpha" operator="arithmetic" k2="-1" k3="1"/>
<feColorMatrix type="matrix" values="0 0 0 0 1 0 0 0 0 1 0 0 0 0 1 0 0 0 1 0"/>
<feBlend mode="normal" in2="shape" result="effect2_innerShadow_3058_25292"/>
</filter>
<filter id="filter2_i_3058_25292" x="5.2002" y="5" width="11.5" height="11.5" filterUnits="userSpaceOnUse" color-interpolation-filters="sRGB">
<feFlood flood-opacity="0" result="BackgroundImageFix"/>
<feBlend mode="normal" in="SourceGraphic" in2="BackgroundImageFix" result="shape"/>
<feColorMatrix in="SourceAlpha" type="matrix" values="0 0 0 0 0 0 0 0 0 0 0 0 0 0 0 0 0 0 127 0" result="hardAlpha"/>
<feOffset/>
<feGaussianBlur stdDeviation="0.5"/>
<feComposite in2="hardAlpha" operator="arithmetic" k2="-1" k3="1"/>
<feColorMatrix type="matrix" values="0 0 0 0 1 0 0 0 0 1 0 0 0 0 1 0 0 0 1 0"/>
<feBlend mode="normal" in2="shape" result="effect1_innerShadow_3058_25292"/>
</filter>
<filter id="filter3_i_3058_25292" x="7" y="7" width="8" height="8.4" filterUnits="userSpaceOnUse" color-interpolation-filters="sRGB">
<feFlood flood-opacity="0" result="BackgroundImageFix"/>
<feBlend mode="normal" in="SourceGraphic" in2="BackgroundImageFix" result="shape"/>
<feColorMatrix in="SourceAlpha" type="matrix" values="0 0 0 0 0 0 0 0 0 0 0 0 0 0 0 0 0 0 127 0" result="hardAlpha"/>
<feOffset dy="0.4"/>
<feGaussianBlur stdDeviation="0.2"/>
<feComposite in2="hardAlpha" operator="arithmetic" k2="-1" k3="1"/>
<feColorMatrix type="matrix" values="0 0 0 0 0.392157 0 0 0 0 0.552941 0 0 0 0 0.635294 0 0 0 1 0"/>
<feBlend mode="normal" in2="shape" result="effect1_innerShadow_3058_25292"/>
</filter>
<filter id="filter4_i_3058_25292" x="8.46924" y="8.5625" width="5.06152" height="4.875" filterUnits="userSpaceOnUse" color-interpolation-filters="sRGB">
<feFlood flood-opacity="0" result="BackgroundImageFix"/>
<feBlend mode="normal" in="SourceGraphic" in2="BackgroundImageFix" result="shape"/>
<feColorMatrix in="SourceAlpha" type="matrix" values="0 0 0 0 0 0 0 0 0 0 0 0 0 0 0 0 0 0 127 0" result="hardAlpha"/>
<feOffset/>
<feGaussianBlur stdDeviation="0.5"/>
<feComposite in2="hardAlpha" operator="arithmetic" k2="-1" k3="1"/>
<feColorMatrix type="matrix" values="0 0 0 0 1 0 0 0 0 1 0 0 0 0 1 0 0 0 1 0"/>
<feBlend mode="normal" in2="shape" result="effect1_innerShadow_3058_25292"/>
</filter>
<linearGradient id="paint0_linear_3058_25292" x1="2" y1="12.1951" x2="19" y2="12.1951" gradientUnits="userSpaceOnUse">
<stop stop-color="#6D92A6"/>
<stop offset="0.515" stop-color="#85C3E5"/>
<stop offset="0.99" stop-color="#6D92A6"/>
</linearGradient>
<linearGradient id="paint1_linear_3058_25292" x1="11" y1="3" x2="11" y2="19" gradientUnits="userSpaceOnUse">
<stop stop-color="#B7CFDC"/>
<stop offset="1" stop-color="#6F92A4"/>
</linearGradient>
<linearGradient id="paint2_linear_3058_25292" x1="8" y1="17" x2="14.5" y2="17" gradientUnits="userSpaceOnUse">
<stop stop-color="#A0C0D1"/>
<stop offset="0.51" stop-color="#D2E9F5"/>
<stop offset="1" stop-color="#A0C0D1"/>
</linearGradient>
<linearGradient id="paint3_linear_3058_25292" x1="10.9502" y1="5" x2="10.9502" y2="16.5" gradientUnits="userSpaceOnUse">
<stop stop-color="white"/>
<stop offset="0.576087" stop-color="#D3E9F5"/>
<stop offset="1" stop-color="#9DB6C3"/>
</linearGradient>
<linearGradient id="paint4_linear_3058_25292" x1="11" y1="7" x2="11" y2="15" gradientUnits="userSpaceOnUse">
<stop stop-color="#98B0BE"/>
<stop offset="1" stop-color="#A0B8C6"/>
</linearGradient>
<linearGradient id="paint5_linear_3058_25292" x1="11.0001" y1="8.5625" x2="11.0001" y2="13.4375" gradientUnits="userSpaceOnUse">
<stop stop-color="white"/>
<stop offset="0.576087" stop-color="#D3E9F5"/>
<stop offset="1" stop-color="#9DB6C3"/>
</linearGradient>
<clipPath id="clip0_3058_25292">
<rect width="6" height="6" fill="white" transform="translate(8 8)"/>
</clipPath>
</defs>
</svg>
