<svg width="408" height="408" viewBox="0 0 408 408" fill="none" xmlns="http://www.w3.org/2000/svg">
<rect width="408" height="408" rx="24" fill="#1F1F1F"/>
<g clip-path="url(#clip0_284_30805)">
<path d="M165.838 235.017C158.921 235.017 158.921 235.017 158.921 228.913V225.655L179.31 210.094L186.62 216.444C190.423 219.766 196.462 219.986 200.56 216.952L235.029 191.239L248.881 203.485C250.277 204.806 250.865 205.404 252.396 205.404C253.497 205.404 254.41 204.856 255.108 204.09C255.851 203.277 255.803 201.323 255.803 200.353V169.298C255.803 157.085 255.803 157.085 241.964 157.085H165.841C157.245 157.085 155.486 157.36 153.8 158.814C152.191 160.202 151.986 161.706 151.999 169.298V230.371C151.999 238.619 152.314 239.968 153.8 241.279C155.286 242.587 157.793 242.587 165.841 242.587H203.832C205.603 242.587 207.36 240.566 207.485 239.01C207.632 237.218 205.899 235.019 203.91 235.019L165.838 235.017ZM166.684 164.908H241.118C247.883 164.908 247.883 164.908 247.885 170.942V193.773L238.912 185.757C236.405 183.864 232.732 183.856 230.216 185.737L196.289 210.97C194.954 211.963 192.995 211.891 191.759 210.807L184.604 204.531C182.085 202.339 178.099 202.224 175.43 204.265L159.919 216.239V170.942C159.917 165.774 160.442 164.908 166.684 164.908ZM178.517 190.736C179.406 191.104 180.36 191.294 181.322 191.294C182.285 191.294 183.238 191.105 184.128 190.736C185.017 190.368 185.825 189.828 186.506 189.147C187.187 188.467 187.727 187.659 188.095 186.769C188.463 185.88 188.653 184.927 188.653 183.964C188.653 183.002 188.464 182.048 188.095 181.159C187.727 180.27 187.187 179.461 186.507 178.781C185.826 178.1 185.018 177.56 184.128 177.191C182.332 176.447 180.314 176.447 178.518 177.191C176.722 177.935 175.295 179.362 174.551 181.158C173.806 182.954 173.806 184.972 174.55 186.768C175.294 188.565 176.721 189.992 178.517 190.736ZM250.765 213.424C259.081 221.775 259.081 235.305 250.765 243.653C248.793 245.637 246.449 247.212 243.866 248.287C241.283 249.362 238.513 249.915 235.716 249.915C232.918 249.915 230.148 249.362 227.566 248.287C224.983 247.212 222.638 245.637 220.666 243.653C212.478 235.285 212.536 221.85 220.797 213.557C224.756 209.572 230.135 207.32 235.753 207.295C241.371 207.27 246.77 209.474 250.765 213.424ZM244.088 241.276L223.031 220.121C221.101 223.059 220.239 226.571 220.591 230.069C220.944 233.566 222.488 236.836 224.964 239.33C227.435 241.817 230.691 243.37 234.178 243.725C237.665 244.08 241.167 243.214 244.088 241.276ZM248.393 236.948C250.317 234.01 251.172 230.501 250.817 227.007C250.462 223.514 248.917 220.248 246.442 217.757C243.974 215.274 240.722 213.722 237.239 213.365C233.756 213.008 230.257 213.868 227.336 215.798L248.393 236.948Z" fill="#454545"/>
</g>
<defs>
<clipPath id="clip0_284_30805">
<rect width="105" height="105" fill="white" transform="translate(152 151)"/>
</clipPath>
</defs>
</svg>
