<svg width="300" height="300" viewBox="0 0 300 300" fill="none" xmlns="http://www.w3.org/2000/svg">
<g clip-path="url(#clip0_284_31005)">
<path d="M5.26562 0.00390625H300.083V294.822H5.26562V0.00390625Z" fill="white" fill-opacity="0.01"/>
<path d="M36.125 191.772L70.2291 161.69H225.235L259.334 191.772H36.125Z" fill="#2D2D2D"/>
<path d="M2.02734 253.773C2.02734 261.528 30.0877 268.688 75.6528 272.568C121.213 276.442 177.349 276.442 222.909 272.568C268.469 268.688 296.54 261.528 296.54 253.773C296.54 241.785 230.611 232.072 149.283 232.072C67.9559 232.072 2.02734 241.785 2.02734 253.773Z" fill="#1F1F1F"/>
<path d="M73.3313 39.8623H222.135C224.199 39.8623 225.236 40.8994 225.236 42.9684V250.673C225.236 252.742 224.199 253.774 222.13 253.774H73.3366C71.2676 253.774 70.2305 252.742 70.2305 250.673V42.9632C70.2305 40.8994 71.2676 39.8623 73.3366 39.8623H73.3313Z" fill="#616161"/>
<path d="M93.4787 148.371H201.982C205.088 148.371 206.636 149.919 206.636 153.02C206.636 156.121 205.083 157.668 201.982 157.668H93.4787C90.3779 157.668 88.8301 156.121 88.8301 153.02C88.8301 149.919 90.3779 148.371 93.4787 148.371Z" fill="#454545"/>
<path d="M91.9309 64.6635H203.53C205.594 64.6635 206.631 65.7006 206.631 67.7696V126.67C206.631 128.734 205.594 129.766 203.525 129.766H91.9362C89.8672 129.766 88.8301 128.734 88.8301 126.67V67.7591C88.8301 65.6953 89.8672 64.6582 91.9362 64.6582L91.9309 64.6635Z" fill="#454545"/>
<path d="M93.4787 170.071H201.982C205.088 170.071 206.636 171.619 206.636 174.72C206.636 177.821 205.083 179.369 201.982 179.369H93.4787C90.3779 179.369 88.8301 177.821 88.8301 174.72C88.8301 171.619 90.3779 170.071 93.4787 170.071Z" fill="#454545"/>
<path d="M259.334 191.772V250.673C259.334 257.517 253.785 263.076 246.935 263.076H48.5284C46.8994 263.077 45.2862 262.757 43.781 262.133C42.2758 261.51 40.9082 260.597 39.7563 259.445C38.6044 258.293 37.6908 256.925 37.0677 255.42C36.4447 253.915 36.1243 252.302 36.125 250.673V191.772H79.5264C81.1703 191.772 82.7469 192.425 83.9098 193.587C85.0727 194.749 85.7267 196.325 85.7281 197.969C85.7281 204.581 90.9084 210.025 97.5102 210.357L98.1262 210.372H200.433C207.04 210.372 212.489 205.192 212.816 198.59L212.831 197.969C212.833 196.325 213.487 194.749 214.65 193.587C215.813 192.425 217.389 191.772 219.033 191.772H259.334Z" fill="#454545"/>
<path d="M131.015 27.7168C130.24 27.7267 129.471 27.5813 128.754 27.2893C128.036 26.9972 127.384 26.5643 126.836 26.0162C126.289 25.4681 125.857 24.8158 125.565 24.0979C125.274 23.38 125.129 22.611 125.14 21.8362C125.14 18.609 127.64 15.9609 131.015 15.9609C132.571 15.9665 134.063 16.5873 135.163 17.6879C136.264 18.7885 136.885 20.2797 136.89 21.8362C136.743 24.995 134.247 27.7168 131.015 27.7168ZM42.9328 76.0774C42.3516 76.0674 41.7744 76.1746 41.2356 76.3926C40.6967 76.6106 40.2073 76.9348 39.7966 77.3461C39.3858 77.7574 39.0621 78.2472 38.8447 78.7863C38.6274 79.3254 38.5209 79.9027 38.5316 80.4839C38.5316 82.9793 40.4427 84.8904 42.9328 84.8904C43.5144 84.9011 44.0922 84.7944 44.6317 84.5768C45.1712 84.3591 45.6612 84.0349 46.0725 83.6236C46.4839 83.2123 46.808 82.7222 47.0257 82.1828C47.2434 81.6433 47.35 81.0655 47.3393 80.4839C47.1971 78.1359 45.2861 76.0774 42.9328 76.0774ZM278.897 87.807C278.897 87.807 275.37 99.4838 268.542 101.1C268.542 101.1 277.06 104.627 278.897 113.072C278.897 113.072 280.219 100.658 290.132 100.363C290.132 100.142 279.34 94.5614 278.897 87.807ZM7.78635 109.639C7.78635 109.639 5.28566 118.452 0 119.847C0 119.847 6.46493 122.343 7.78635 128.955C7.78635 128.955 8.81294 119.552 16.1571 119.405C16.3782 119.258 8.15487 114.777 7.78635 109.639Z" fill="#8E8673"/>
<path d="M187.219 67.5271L208.588 77.1455L243.84 49.459L217.032 78.3985L243.84 87.3535L258.754 33.3809L187.224 67.5323L187.219 67.5271Z" fill="#8E8673"/>
<path d="M134.994 169.982C131.916 171.658 128.78 173.226 125.592 174.683L126.471 177.036C126.618 177.036 130.735 175.42 136.237 172.193L134.994 169.982ZM147.113 161.901C144.613 163.812 141.97 165.87 139.327 167.481C139.057 167.675 138.864 167.959 138.784 168.282C138.704 168.606 138.741 168.947 138.89 169.245C139.327 169.834 140.064 169.982 140.654 169.687C143.428 167.897 146.123 165.986 148.73 163.959C149.025 163.664 149.319 163.222 149.172 162.785C149.172 162.343 148.73 161.901 148.435 161.753C147.851 161.611 147.403 161.611 147.113 161.901ZM160.923 148.613C160.333 148.171 159.596 148.318 159.159 148.902C157.106 151.84 154.605 154.783 151.815 157.426C151.603 157.67 151.487 157.982 151.487 158.305C151.487 158.628 151.603 158.94 151.815 159.184C152.059 159.397 152.372 159.514 152.697 159.514C153.021 159.514 153.334 159.397 153.578 159.184C156.516 156.394 159.159 153.309 161.212 150.229C161.365 149.934 161.507 149.639 161.365 149.345C161.507 149.197 161.212 148.902 160.923 148.608V148.613ZM166.872 121.068C166.875 121.294 166.947 121.514 167.079 121.697C167.211 121.881 167.396 122.02 167.609 122.095C167.823 122.179 168.056 122.21 168.285 122.184C168.514 122.158 168.734 122.077 168.925 121.948C169.22 121.658 169.514 121.211 169.367 120.774C168.777 115.046 166.724 110.56 163.344 107.77C163.082 107.576 162.758 107.485 162.434 107.513C162.109 107.541 161.805 107.687 161.581 107.923C161.469 108.046 161.384 108.19 161.331 108.347C161.278 108.505 161.257 108.671 161.271 108.837C161.285 109.002 161.333 109.163 161.411 109.309C161.49 109.455 161.598 109.584 161.728 109.686C164.666 111.887 166.429 115.925 166.866 121.068H166.872ZM146.087 108.218C146.234 108.218 146.376 108.218 146.671 108.07C150.199 106.601 153.868 106.159 157.322 107.044C158.059 107.191 158.643 106.896 158.938 106.159C159.085 105.422 158.79 104.843 158.059 104.548C153.971 103.497 149.648 103.859 145.792 105.575C145.208 105.864 144.913 106.454 145.055 107.044C145.055 107.775 145.497 108.218 146.087 108.218ZM139.106 121.216C138.84 120.209 138.789 119.158 138.959 118.131L140.133 114.167C140.722 113.135 141.312 112.255 142.044 111.524C142.257 111.279 142.374 110.966 142.374 110.642C142.374 110.318 142.257 110.004 142.044 109.76C141.799 109.547 141.486 109.43 141.162 109.43C140.838 109.43 140.524 109.547 140.28 109.76C137.053 113.287 135.579 117.541 136.611 122.169C136.758 122.906 137.49 123.195 138.074 123.048C138.811 122.537 139.253 121.805 139.106 121.216ZM139.401 125.77C138.811 126.212 138.664 126.944 139.106 127.533C140.586 129.687 142.368 131.616 144.397 133.261C145.134 133.851 146.013 134.583 146.745 135.172C147.335 135.615 148.072 135.467 148.509 134.877C148.951 134.293 148.803 133.561 148.219 133.119L146.013 131.208C144.168 129.67 142.539 127.891 141.17 125.917C140.722 125.327 139.985 125.18 139.401 125.77ZM159.596 140.384C159.751 140.387 159.905 140.359 160.049 140.301C160.193 140.243 160.324 140.157 160.434 140.047C160.544 139.938 160.631 139.807 160.69 139.663C160.748 139.52 160.777 139.365 160.775 139.21C160.768 138.908 160.665 138.617 160.48 138.378C160.296 138.139 160.039 137.966 159.749 137.884C157.248 137.594 154.752 136.71 152.252 135.536C151.667 135.241 150.936 135.536 150.641 136.125C150.346 136.71 150.641 137.441 151.225 137.736C153.815 139.037 156.595 139.926 159.454 140.379H159.596V140.384ZM169.22 137.152C168.777 137.299 168.193 137.447 167.751 137.594C168.619 134.619 169.209 131.57 169.514 128.486C169.514 128.197 169.367 127.897 169.225 127.607C169.072 127.312 168.635 127.165 168.34 127.165C167.603 127.165 167.024 127.607 167.024 128.344C166.729 131.571 166.14 134.951 164.966 138.11C164.524 138.11 163.939 138.11 163.497 138.257C163.342 138.255 163.189 138.284 163.045 138.342C162.902 138.401 162.771 138.487 162.662 138.596C162.553 138.706 162.466 138.836 162.408 138.98C162.35 139.123 162.321 139.277 162.323 139.431C162.323 140.168 162.907 140.611 163.644 140.611H164.087C163.644 141.785 163.055 142.959 162.47 144.28C162.176 144.87 162.47 145.607 163.055 145.896C163.644 146.191 164.381 146.044 164.671 145.459C165.554 143.863 166.293 142.191 166.877 140.463C167.903 140.316 168.93 140.026 169.962 139.726C170.699 139.579 170.988 138.847 170.841 138.263C170.836 137.299 169.957 136.857 169.22 137.157V137.152ZM184.424 128.265C181.481 130.761 178.543 133.109 175.606 134.583C175.021 134.872 174.726 135.609 175.169 136.346C175.458 136.931 176.195 137.225 176.927 136.783C179.87 135.167 183.097 132.819 186.182 130.176C186.476 129.857 186.635 129.436 186.624 129.002C186.477 128.56 186.182 128.118 185.745 128.118C185.155 127.823 184.719 127.97 184.424 128.265ZM197.496 115.488C197.229 115.324 196.928 115.224 196.617 115.193C196.327 115.193 196.032 115.341 195.737 115.635C193.684 118.426 191.331 121.216 189.13 123.416C189.019 123.539 188.934 123.684 188.881 123.841C188.827 123.998 188.807 124.165 188.821 124.33C188.835 124.496 188.882 124.656 188.961 124.803C189.04 124.949 189.147 125.077 189.278 125.18C189.522 125.393 189.835 125.51 190.159 125.51C190.484 125.51 190.797 125.393 191.041 125.18C193.242 122.832 195.595 120.042 197.796 117.104C197.959 116.837 198.06 116.537 198.091 116.225C197.938 116.072 197.791 115.777 197.496 115.488ZM207.999 99.1098C207.709 98.9624 207.409 98.9624 207.119 98.9624C206.825 99.1098 206.53 99.2519 206.382 99.552C204.471 103.221 202.118 106.601 199.917 110.055C199.789 110.247 199.708 110.468 199.682 110.698C199.657 110.928 199.687 111.16 199.77 111.376C199.845 111.589 199.984 111.774 200.168 111.906C200.351 112.038 200.571 112.11 200.797 112.113C201.027 112.125 201.257 112.077 201.464 111.973C201.67 111.87 201.847 111.715 201.976 111.524C204.176 107.996 206.53 104.469 208.583 100.731C208.73 100.436 208.73 100.142 208.73 99.8468C208.588 99.3993 208.293 99.2519 207.999 99.1098ZM216.08 82.5842C215.785 82.4368 215.49 82.4368 215.053 82.5842C214.758 82.7316 214.464 82.879 214.316 83.3212C214.316 83.3212 212.7 87.2855 209.762 92.866C209.467 93.4556 209.615 94.1874 210.352 94.4822C210.936 94.7717 211.668 94.6296 211.963 93.8926C214.9 88.1647 216.664 84.3478 216.664 84.2004C217.106 83.6108 216.664 82.879 216.08 82.5842Z" fill="#8E8673"/>
</g>
<defs>
<clipPath id="clip0_284_31005">
<rect width="300" height="300" fill="white"/>
</clipPath>
</defs>
</svg>
